<?xml version="1.0" encoding="UTF-8" standalone="no"?>
<svg width="240px" height="16px" viewBox="0 0 240 16" version="1.1" xmlns="http://www.w3.org/2000/svg" xmlns:xlink="http://www.w3.org/1999/xlink" xmlns:sketch="http://www.bohemiancoding.com/sketch/ns">
    <!-- Generator: Sketch 3.3.2 (12043) - http://www.bohemiancoding.com/sketch -->
    <title>logo</title>
    <desc>Created with Sketch.</desc>
    <defs></defs>
    <g id="Page-1" stroke="none" stroke-width="1" fill="none" fill-rule="evenodd" sketch:type="MSPage">
        <g id="Shop---Home" sketch:type="MSArtboardGroup" transform="translate(-600.000000, -33.000000)" fill="#212121">
            <g id="Imported-Layers" sketch:type="MSLayerGroup" transform="translate(0.000000, -2.000000)">
                <g id="logo" transform="translate(600.000000, 35.000000)" sketch:type="MSShapeGroup">
                    <path d="M0,15.724 L0,0.34 L7.703,0.34 C11.163,0.34 13.055,2.669 13.055,5.46 C13.055,8.228 11.163,10.557 7.703,10.557 L3.967,10.557 L3.967,15.724 L0,15.724 L0,15.724 Z M9.018,5.46 C9.018,4.399 8.234,3.8 7.173,3.8 L3.967,3.8 L3.967,7.098 L7.173,7.098 C8.234,7.098 9.018,6.498 9.018,5.46 L9.018,5.46 Z" id="Fill-8"></path>
                    <path d="M15.407,15.724 L15.407,0.34 L19.375,0.34 L19.375,12.264 L25.556,12.264 L25.556,15.724 L15.407,15.724" id="Fill-9"></path>
                    <path d="M38.633,15.724 L37.872,13.51 L31.806,13.51 L31.045,15.724 L26.547,15.724 L32.337,0.34 L37.318,0.34 L43.131,15.724 L38.633,15.724 L38.633,15.724 Z M34.828,4.261 L32.867,10.05 L36.788,10.05 L34.828,4.261 L34.828,4.261 Z" id="Fill-10"></path>
                    <path d="M47.467,15.724 L47.467,9.52 L41.632,0.34 L46.106,0.34 L49.451,6.014 L52.749,0.34 L57.246,0.34 L51.434,9.52 L51.434,15.724 L47.467,15.724" id="Fill-11"></path>
                    <path d="M58.954,0.34 L62.921,0.34 L62.921,15.724 L58.954,15.724 L58.954,0.34 Z" id="Fill-12"></path>
                    <path d="M70.233,6.821 L70.233,15.724 L66.266,15.724 L66.266,0.34 L70.348,0.34 L76.576,8.805 L76.576,0.34 L80.566,0.34 L80.566,15.724 L76.737,15.724 L70.233,6.821 Z" id="Fill-13"></path>
                    <path d="M83.126,8.044 C83.126,3.154 86.862,0.086 91.452,0.086 C94.888,0.086 96.964,1.908 98.025,3.823 L94.704,5.552 C94.127,4.538 92.951,3.592 91.452,3.592 C88.938,3.592 87.162,5.529 87.162,8.044 C87.162,10.557 88.938,12.495 91.452,12.495 C92.582,12.495 93.736,12.034 94.289,11.572 L94.289,10.373 L90.83,10.373 L90.83,6.89 L98.256,6.89 L98.256,13.002 C96.595,14.824 94.358,16.001 91.452,16.001 C86.862,16.001 83.126,12.933 83.126,8.044" id="Fill-14"></path>
                    <path d="M107.091,15.724 L107.091,6.494 L113.857,6.494 L113.857,8.57 L109.471,8.57 L109.471,10.009 L113.76,10.009 L113.76,12.085 L109.471,12.085 L109.471,15.724 L107.091,15.724" id="Fill-15"></path>
                    <path d="M115.02,11.116 C115.02,8.307 117.138,6.342 119.96,6.342 C122.783,6.342 124.886,8.307 124.886,11.116 C124.886,13.925 122.783,15.89 119.96,15.89 C117.138,15.89 115.02,13.925 115.02,11.116 L115.02,11.116 Z M122.465,11.116 C122.465,9.608 121.483,8.445 119.96,8.445 C118.424,8.445 117.442,9.608 117.442,11.116 C117.442,12.61 118.424,13.787 119.96,13.787 C121.483,13.787 122.465,12.61 122.465,11.116 L122.465,11.116 Z" id="Fill-16"></path>
                    <path d="M131.585,15.724 L130.035,12.624 L128.817,12.624 L128.817,15.724 L126.438,15.724 L126.438,6.494 L131.059,6.494 C133.107,6.494 134.269,7.85 134.269,9.566 C134.269,11.171 133.287,12.029 132.429,12.334 L134.311,15.724 L131.585,15.724 L131.585,15.724 Z M131.848,9.552 C131.848,8.93 131.322,8.57 130.699,8.57 L128.817,8.57 L128.817,10.549 L130.699,10.549 C131.322,10.549 131.848,10.203 131.848,9.552 L131.848,9.552 Z" id="Fill-17"></path>
                    <path d="M142.182,8.044 C142.182,3.292 145.78,0.086 150.508,0.086 C154.221,0.086 156.205,2.185 157.22,4.215 L153.806,5.829 C153.299,4.607 151.984,3.592 150.508,3.592 C147.994,3.592 146.218,5.529 146.218,8.044 C146.218,10.557 147.994,12.495 150.508,12.495 C151.984,12.495 153.299,11.48 153.806,10.258 L157.22,11.872 C156.228,13.856 154.221,16.001 150.508,16.001 C145.78,16.001 142.182,12.772 142.182,8.044" id="Fill-18"></path>
                    <path d="M169.859,15.724 L169.859,9.543 L163.471,9.543 L163.471,15.724 L159.503,15.724 L159.503,0.34 L163.471,0.34 L163.471,6.083 L169.859,6.083 L169.859,0.34 L173.826,0.34 L173.826,15.724 L169.859,15.724" id="Fill-19"></path>
                    <path d="M187.619,15.724 L186.858,13.51 L180.792,13.51 L180.032,15.724 L175.534,15.724 L181.323,0.34 L186.305,0.34 L192.117,15.724 L187.619,15.724 L187.619,15.724 Z M183.814,4.261 L181.853,10.05 L185.774,10.05 L183.814,4.261 L183.814,4.261 Z" id="Fill-20"></path>
                    <path d="M204.295,15.724 L197.791,6.821 L197.791,15.724 L193.824,15.724 L193.824,0.34 L197.907,0.34 L204.134,8.805 L204.134,0.34 L208.124,0.34 L208.124,15.724 L204.295,15.724" id="Fill-21"></path>
                    <path d="M210.685,8.044 C210.685,3.154 214.421,0.086 219.011,0.086 C222.448,0.086 224.523,1.908 225.584,3.823 L222.263,5.552 C221.686,4.538 220.51,3.592 219.011,3.592 C216.497,3.592 214.721,5.529 214.721,8.044 C214.721,10.557 216.497,12.495 219.011,12.495 C220.141,12.495 221.294,12.034 221.848,11.572 L221.848,10.373 L218.388,10.373 L218.388,6.89 L225.815,6.89 L225.815,13.002 C224.154,14.824 221.917,16.001 219.011,16.001 C214.421,16.001 210.685,12.933 210.685,8.044" id="Fill-22"></path>
                    <path d="M228.722,15.724 L228.722,0.34 L240,0.34 L240,3.8 L232.689,3.8 L232.689,6.198 L239.839,6.198 L239.839,9.658 L232.689,9.658 L232.689,12.264 L240,12.264 L240,15.724 L228.722,15.724" id="Fill-23"></path>
                </g>
            </g>
        </g>
    </g>
</svg>