<?xml version="1.0" encoding="UTF-8" standalone="no"?>
<svg width="254px" height="236px" viewBox="0 0 254 236" version="1.1" xmlns="http://www.w3.org/2000/svg" xmlns:xlink="http://www.w3.org/1999/xlink" xmlns:sketch="http://www.bohemiancoding.com/sketch/ns">
    <!-- Generator: Sketch 3.3.3 (12072) - http://www.bohemiancoding.com/sketch -->
    <title>Artboard 1</title>
    <desc>Created with Sketch.</desc>
    <defs></defs>
    <g id="Page-1" stroke="none" stroke-width="1" fill="none" fill-rule="evenodd" sketch:type="MSPage">
        <g id="Artboard-1" sketch:type="MSArtboardGroup" fill="#FEE833">
            <g id="Clipped" sketch:type="MSLayerGroup" transform="translate(49.858975, 167.000000)">
                <g id="Shape-Clipped" transform="translate(0.000000, 1.000000)" sketch:type="MSShapeGroup">
                    <path d="M80.713748,0.749827 C81.073682,8.190233 81.362393,14.891434 81.729019,21.587848 C82.55548,36.668303 83.393412,51.74828 84.276277,66.824906 C85.026736,79.643221 85.851763,92.457228 86.635204,105.274107 C87.542447,120.128109 88.5668,134.978281 89.260377,149.843295 C89.452054,153.947703 89.036195,158.178025 88.214514,162.211097 C86.677268,169.759703 81.243371,173.681704 73.517946,173.441845 C65.149611,173.181879 59.93894,169.714221 57.664619,161.641373 C56.139323,156.227557 55.206268,150.488184 55.07195,144.869459 C54.604945,125.374838 52.980703,105.98315 51.120329,86.589069 C49.9028648,73.891879 49.4014435,60.910307 48.6395125,47.652969 C48.1352232,41.08965 47.7346597,38.16347 47.0683286,32.668265 C46.8302849,31.725108 45.8661602,31.414872 45.1300412,31.26119 C43.7739569,30.976807 42.4183507,31.334919 41.9900633,32.897591 C41.6865337,34.004963 41.6028838,35.188457 41.5397879,36.345141 C40.681779,52.002023 39.8725261,67.661778 38.9925293,83.317703 C38.423232,93.442515 37.685201,103.558232 37.1536657,113.684959 C36.4916366,126.290227 36.1259671,138.913687 35.2851662,151.506028 C35.0170085,155.520429 34.0547958,159.608559 32.6896296,163.402731 C29.5496518,172.130043 23.1726622,175.234801 14.1427762,172.962128 C5.2061,170.712914 0.5441722,165.02046 0.734894,155.834495 C0.8586958,149.870584 1.6402248,143.920557 2.1029281,137.962391 C2.6621874,130.763759 3.2410446,123.566083 3.730994,116.362184 C4.5875689,103.770322 5.5010256,91.180854 6.1539728,78.578938 C6.4861823,72.170259 6.2337987,65.733812 6.3872365,59.313164 C6.4517664,56.630194 6.8289079,53.948182 7.1673314,51.279096 C7.479943,48.813961 8.8632732,46.950628 10.8785185,45.593344 C12.6891801,44.373464 14.5084457,43.133955 16.4472111,42.144837 C21.4169706,39.609804 25.1205097,35.815153 27.9469199,31.074474 C30.112257,27.44308 32.1858183,23.750885 34.4931212,20.211892 C36.158949,17.656272 37.9901646,15.173424 40.0178379,12.900272 C43.2199557,9.310052 47.3508262,7.481668 52.19057,7.352403 C53.501244,7.317454 54.831038,7.117332 56.119247,7.270535 C63.628139,8.164859 70.38466,6.233063 76.661747,2.146848 C77.720994,1.455519 79.113406,1.282208 80.713748,0.749827" id="Shape"></path>
                </g>
            </g>
            <g id="Clipped" sketch:type="MSLayerGroup" transform="translate(1.141026, 66.556819)">
                <path d="M54.5946819,58.3419032 C57.7843716,58.3419032 60.7321937,58.6880465 63.566252,58.2672166 C68.818987,57.4873169 72.8246217,54.2212174 76.6314087,50.751645 C79.7570465,47.9035028 82.7488446,44.8882735 86.0379582,42.2436042 C91.7127667,37.6819806 98.0907123,35.8588632 105.234891,38.3584683 C109.133932,39.722455 112.152976,42.3585066 114.771456,45.4584764 C116.841671,47.9092479 118.895157,50.3863512 120.772738,52.984102 C122.07433,54.7847177 123.302789,55.2577324 125.500152,54.3768143 C142.786521,47.4515535 160.12547,40.6565154 177.445777,33.8169526 C185.8361,30.5039347 194.224511,27.1866079 202.609098,23.8606634 C206.74188,22.220911 210.066366,19.683484 212.028075,15.5369451 C213.291428,12.8664229 215.365467,11.0030896 218.114441,9.84688468 C225.154894,6.88719147 232.189611,3.91457175 239.184653,0.850508895 C240.671231,0.199395539 241.751032,0.394729545 242.920218,1.41209416 C246.987993,4.95156552 248.419123,9.70421425 249.035742,14.7924736 C249.106008,15.3775181 248.471703,16.3278564 247.902406,16.665382 C243.968949,18.9978999 240.045052,21.3715911 235.961504,23.4202043 C231.869351,25.474084 227.605119,27.1856503 223.39251,28.9944049 C222.768243,29.2620317 221.943216,29.4908789 221.339025,29.3089501 C214.956777,27.3857719 209.047749,29.0576012 203.405923,31.8425471 C188.127629,39.3839718 172.882795,46.9952954 157.704881,54.7373205 C148.823175,59.2678247 140.109247,64.1272368 131.286334,68.7750372 C129.690772,69.6157394 129.507221,70.5708653 129.878148,72.2843467 C131.394362,79.2938692 131.819782,86.3158395 128.873871,93.1209316 C125.270234,101.44848 118.514669,105.180413 109.839937,105.956961 C108.182713,106.105377 106.470041,106.042659 104.821421,105.807588 C96.8665559,104.6758 90.4637544,107.47463 85.5389269,113.609458 C82.8544824,116.953595 80.5772934,120.62712 78.1170307,124.152228 C75.655812,127.676858 73.393441,131.363309 70.6956125,134.695956 C63.9668154,143.012014 55.0267933,147.344311 44.4773473,148.273105 C39.384742,148.721225 34.6946122,147.152329 30.4246439,144.361159 C21.8952232,138.785043 15.9135391,130.939606 10.9968376,122.207027 C5.50797088,112.458519 1.75089585,102.088582 0.600829376,90.8937409 C-0.0951377018,84.1216832 0.305425768,77.3850538 3.53622349,71.2674608 C5.02997151,68.4389478 7.3812504,66.0441912 9.46723963,63.5570339 C10.8151978,61.9503159 12.5140076,62.0197361 14.1349035,63.2281259 C15.8222412,64.4863067 17.6123488,65.659747 19.0884109,67.1395936 C26.7555207,74.8270401 34.3839126,82.5542236 41.9296106,90.36136 C45.9629693,94.5342306 50.5020513,97.1693246 56.5038113,95.9820003 C66.5250681,93.9989771 71.0020101,83.1426194 65.2459418,74.5795212 C63.5901519,72.1158232 61.4128648,70.0030561 59.4688414,67.7351708 C57.2232004,65.1158759 55.3155049,62.3213548 54.5946819,58.3419032 M101.137002,78.8668154 C101.16616,71.6011564 96.5658943,66.582796 89.8547832,66.5593367 C82.416635,66.5325262 77.3804337,71.4340692 77.3445837,78.734199 C77.3087338,86.1262506 82.0026876,90.7927226 89.5192276,90.8358109 C96.4033745,90.8750692 101.108322,86.0285836 101.137002,78.8668154" id="Shape" sketch:type="MSShapeGroup"></path>
            </g>
            <g id="Clipped" sketch:type="MSLayerGroup" transform="translate(10.115385, 63.988637)">
                <path d="M46.7981133,58.1012582 C46.5858816,54.2754885 46.3903799,50.7216543 46.1877081,47.1682989 C46.1709782,46.8781705 46.1461222,46.576073 46.0519563,46.3046162 C44.5438683,41.9641797 42.9234505,40.3028831 39.1506015,44.1305679 C37.1047642,46.2059917 35.0699209,48.2962571 33.1435834,50.4808381 C32.8290598,50.8375142 32.8601298,51.8754655 33.1507534,52.3274148 C34.5694555,54.531625 36.0545996,56.7028008 37.6558974,58.7772671 C41.8895378,64.2605033 46.259886,69.6388911 50.4466825,75.1575556 C52.8362013,78.3058801 54.9078506,81.64906 54.6745869,85.902841 C54.2448655,93.740618 47.3664546,98.1547835 40.1529661,95.1548745 C36.0058436,93.4303816 32.8692118,90.3802028 29.8864957,87.1576705 C25.18107,82.0737199 20.5683761,76.9026351 15.8084584,71.8703906 C12.7554764,68.6425919 9.58108262,65.5210779 6.33451092,62.4881344 C0.338964862,56.8880808 -0.979835391,51.0883843 2.25574232,43.5340331 C2.85658753,42.1317456 3.45695473,40.6748795 4.35415954,39.4636171 C11.0710066,30.3906398 17.5144381,21.0825914 24.7264926,12.4184749 C32.1311808,3.52359618 42.3555872,0.167968603 53.7439221,0.141158053 C63.8727287,0.117220062 74.0015353,0.101420988 84.1303419,0.0975909091 C93.889655,0.0937608305 103.64849,0.0942395903 113.407803,0.12105014 C127.291295,0.158872166 137.772865,6.27167755 144.689038,18.2344492 C148.038379,24.0264855 150.818902,30.1459935 153.920161,36.0845303 C154.516705,37.22733 154.118531,37.9200955 153.22515,38.4366773 C150.40113,40.0716421 147.641162,41.8708215 144.670874,43.185496 C139.488405,45.479713 134.163492,47.4488522 128.907411,49.5783759 C127.131165,50.2984306 125.939513,49.448632 124.997854,48.1224673 C124.327221,47.1778741 123.997879,45.9532065 123.220174,45.135006 C122.670953,44.5571429 121.611228,44.1937642 120.810579,44.2430764 C120.417664,44.2674932 118.925828,44.9171703 118.854606,45.6032331 C118.683004,47.2664447 118.849826,48.5212742 118.664362,50.1816132 C118.494194,51.7064633 117.574524,54.7279165 117.574524,54.7279165 C117.574524,54.7279165 116.347499,54.5718408 115.037303,53.8182728 C112.657344,52.4490198 110.469541,50.4798806 108.717195,48.3470056 C106.202919,45.2872516 103.726882,42.3270796 100.340734,40.1444136 C93.3562077,35.6421563 81.1973378,36.79884 74.7983602,42.6617327 C72.0575119,45.172828 69.3701994,47.7437682 66.693403,50.3238049 C61.6237417,55.2095489 55.7878474,58.3018586 48.567667,58.2128092 C47.9993257,58.2065854 47.4314625,58.1429103 46.7981133,58.1012582" id="Shape" sketch:type="MSShapeGroup"></path>
            </g>
            <g id="Clipped" sketch:type="MSLayerGroup" transform="translate(147.294871, 99.943182)">
                <path d="M0.508714783,32.4945704 C4.43595758,30.011722 8.10986072,27.2277336 12.1632953,25.2064097 C28.4994017,17.0598326 44.9416239,9.12630359 61.3695062,1.16644282 C65.1409212,-0.660504658 67.5949699,0.41143858 69.0022001,4.37844245 C70.3726242,8.24490676 70.1551345,12.1108923 68.6728585,15.9136816 C67.6967838,18.4175954 65.5964546,19.7442389 63.3278696,20.8027769 C59.242887,22.7091985 55.0766445,24.4432665 51.0122159,26.3913402 C42.8785787,30.290839 34.8505793,34.4148761 26.6552802,38.1755345 C23.4541184,39.6448483 19.987667,40.8518019 16.5221716,41.3573722 C9.92052232,42.322552 4.63145932,39.2905661 0.508714783,32.4945704" id="Shape" sketch:type="MSShapeGroup"></path>
            </g>
            <g id="Clipped" sketch:type="MSLayerGroup" transform="translate(67.807693, 3.636364)">
                <path d="M53.5993922,27.1267439 C53.5993922,41.8529172 41.680478,53.7912721 26.9776955,53.7912721 C12.2744349,53.7912721 0.355520734,41.8529172 0.355520734,27.1267439 C0.355520734,12.4005705 12.2744349,0.462694416 26.9776955,0.462694416 C41.680478,0.462694416 53.5993922,12.4005705 53.5993922,27.1267439" id="Shape" sketch:type="MSShapeGroup"></path>
            </g>
        </g>
    </g>
</svg>