<?xml version="1.0" encoding="UTF-8" standalone="no"?>
<svg width="60px" height="60px" viewBox="0 0 60 60" version="1.1" xmlns="http://www.w3.org/2000/svg" xmlns:xlink="http://www.w3.org/1999/xlink" xmlns:sketch="http://www.bohemiancoding.com/sketch/ns">
    <!-- Generator: Sketch 3.3.3 (12072) - http://www.bohemiancoding.com/sketch -->
    <title>Fill 4</title>
    <desc>Created with Sketch.</desc>
    <defs></defs>
    <g id="Page-1" stroke="none" stroke-width="1" fill="none" fill-rule="evenodd" sketch:type="MSPage">
        <g id="Artboard-5" sketch:type="MSArtboardGroup" transform="translate(-21.000000, -21.000000)" fill="#FFFFFF">
            <path d="M74.4086978,65.4452327 C65.2785035,60.116559 59.9171051,59.333893 59.9171051,56.5550196 C59.9171051,55.6878148 60.0180063,54.8806053 60.1543593,54.1143016 C63.6095433,50.8718282 65.4912142,44.6050461 65.4912142,38.7800476 C65.4912142,28.9626344 62.1560207,21.0023485 51.0023485,21.0023485 C39.8486762,21.0023485 36.5134828,28.9626344 36.5134828,38.7800476 C36.5134828,44.6050461 38.3978807,50.8718282 41.8503377,54.1143016 C41.9866907,54.8806053 42.0875919,55.6878148 42.0875919,56.5550196 C42.0875919,59.333893 35.6380968,60.1574649 26.483359,65.4452327 C20.6338169,68.8240591 21.004697,75.0281189 21.004697,77.706091 C21.004697,79.3968677 21.9973465,80.9976515 23.6935774,80.9976515 L78.3111196,80.9976515 C80.0073504,80.9976515 81,79.3968677 81,77.706091 C81,75.2353754 80.1218869,68.7776991 74.4086978,65.4452327 L74.4086978,65.4452327 Z M26.5924413,75.4426319 C26.7397025,72.9364644 27.358745,71.3547701 29.2622323,70.2530382 C32.747414,68.2431955 35.8508074,66.9123906 38.3433395,65.8406563 C42.9166179,63.8799007 47.6426115,61.8509687 47.6426115,56.5550196 C47.6426115,55.464196 47.5389833,54.3788264 47.3180915,53.1380144 C47.1081079,51.9599248 46.5245172,50.8827365 45.6518583,50.0646187 C43.5765662,48.1147713 42.0685025,43.3696883 42.0685025,38.7800476 C42.0685025,34.5831034 42.785719,31.3324488 44.1410675,29.3716933 C44.9782747,28.1663331 46.6008749,26.5573681 51.0023485,26.5573681 C55.3247374,26.5573681 59.9361945,27.5036577 59.9361945,38.7800476 C59.9361945,43.3696883 58.4281308,48.1147713 56.3528387,50.0646187 C55.4801797,50.8827365 54.8965891,51.9599248 54.6866055,53.1380144 C54.4629866,54.3788264 54.3620855,55.464196 54.3620855,56.5550196 C54.3620855,61.8073357 58.9190014,63.937169 63.3259291,65.9933716 C65.5593906,67.0351083 68.338264,68.3331885 71.6107351,70.2421299 C73.8332883,71.5402101 74.7686697,73.7545822 75.1613662,75.4426319 L26.5924413,75.4426319 L26.5924413,75.4426319 Z" id="Fill-4" sketch:type="MSShapeGroup"></path>
        </g>
    </g>
</svg>